<svg xmlns="http://www.w3.org/2000/svg" fill="currentColor" aria-label="A chubby flywheel" viewBox="-0.0 -5.5 172.0 172.0"><g transform="translate(0.000000,161.000000) scale(0.100000,-0.100000)"><path d="M785 1464 c-132 -21 -199 -39 -270 -74 -207 -101 -322 -260 -360
-498 -17 -106 -17 -119 -2 -213 22 -132 76 -244 165 -340 53 -57 80 -77 157
-114 252 -122 614 -106 842 38 69 44 165 159 199 239 52 122 56 139 61 258 8
179 -31 309 -138 466 -65 96 -209 187 -345 219 -69 17 -252 28 -309 19z m225
-79 c121 -10 232 -64 321 -155 71 -72 88 -100 134 -215 48 -121 46 -336 -5
-451 -39 -90 -45 -98 -116 -171 -52 -54 -89 -81 -137 -103 -131 -59 -142 -61
-324 -65 -148 -3 -182 -1 -243 16 -39 10 -78 23 -88 28 -9 5 -33 15 -52 22
-19 7 -69 48 -112 91 -130 130 -177 260 -163 453 10 150 75 301 164 383 93 87
224 148 346 162 120 14 157 17 190 13 17 -1 55 -5 85 -8z M790 1243 c-98 -16
-224 -78 -278 -137 -131 -142 -163 -335 -85 -503 24 -52 115 -150 170 -182 90
-54 261 -75 373 -47 142 36 245 112 297 217 49 101 56 131 51 242 -4 91 -8
109 -38 172 -39 80 -96 146 -154 180 -85 49 -234 75 -336 58z m94 -89 c25 -25
28 -56 10 -109 -20 -62 -31 -75 -59 -75 -12 0 -39 -11 -60 -25 l-37 -26 -55
21 c-101 38 -113 47 -113 85 0 41 20 65 82 96 94 49 202 64 232 33z m220 -44
c59 -36 136 -160 136 -220 0 -55 -99 -95 -173 -71 -38 13 -55 48 -39 78 13 23
3 53 -28 88 -33 38 -31 77 6 116 33 34 55 36 98 9z m-513 -215 c69 -24 99 -57
99 -109 0 -36 -5 -47 -26 -60 -14 -10 -41 -35 -61 -57 -74 -82 -143 -29 -145
113 -1 62 18 103 55 118 30 12 28 12 78 -5z m313 -5 c33 -12 61 -69 52 -105
-17 -69 -103 -99 -159 -55 -89 70 -1 201 107 160z m291 -165 c14 -13 25 -34
25 -46 0 -36 -38 -105 -76 -139 -69 -60 -145 -27 -174 74 -12 44 -12 45 21 85
26 31 39 40 56 36 12 -3 32 -1 45 4 41 17 78 12 103 -14z m-402 -77 c21 -8 26
-15 21 -27 -21 -52 -20 -53 36 -49 52 3 53 2 72 -34 17 -32 18 -41 6 -65 -18
-37 -71 -49 -146 -33 -32 6 -66 13 -78 15 -40 6 -84 35 -90 60 -8 31 10 76 39
103 33 30 80 52 97 46 8 -4 28 -11 43 -16z"/></g></svg>