<svg xmlns="http://www.w3.org/2000/svg" fill="currentColor" aria-label="A chubby dendrogram" viewBox="-0.0 -10.0 226.0 226.0"><g transform="translate(0.000000,206.000000) scale(0.100000,-0.100000)"><path d="M945 1866 c-65 -29 -115 -110 -115 -186 0 -52 40 -131 80 -160 26
-19 30 -27 30 -71 0 -60 -11 -62 -104 -20 -56 25 -64 32 -70 63 -4 22 -23 50
-56 83 -46 45 -53 49 -109 53 -81 6 -104 -2 -156 -49 -82 -76 -87 -207 -12
-287 46 -49 142 -75 200 -53 20 8 44 0 134 -43 126 -62 143 -82 118 -144 -19
-44 -30 -52 -75 -52 -39 0 -233 64 -238 78 -1 5 -16 30 -32 56 -33 52 -109 96
-167 96 -46 0 -113 -32 -153 -74 -33 -35 -35 -41 -38 -120 -4 -80 -3 -83 30
-126 37 -51 106 -90 155 -90 18 0 53 5 77 12 41 11 50 9 113 -18 37 -16 70
-29 73 -29 3 0 33 -14 66 -32 85 -45 106 -90 73 -155 -11 -20 -31 -45 -45 -55
-15 -10 -52 -41 -82 -69 -52 -48 -54 -52 -55 -102 0 -60 31 -109 87 -136 109
-51 377 -71 543 -40 106 20 140 34 182 77 66 69 51 149 -40 214 -67 48 -76 73
-47 125 28 50 95 87 171 95 l55 6 27 -60 c26 -59 64 -98 108 -111 12 -3 48 -6
80 -5 49 1 65 6 95 30 42 33 81 104 82 147 0 53 -23 106 -62 141 -21 19 -45
35 -53 35 -21 0 -19 8 13 35 15 14 40 25 57 25 57 1 132 45 166 97 28 44 30
54 27 123 -2 59 -8 82 -26 108 -37 50 -87 84 -136 89 -74 9 -114 -4 -167 -54
-51 -47 -69 -88 -69 -155 0 -50 -27 -68 -195 -133 -38 -15 -89 -35 -112 -46
-24 -10 -57 -19 -74 -19 -31 0 -31 1 -26 36 8 48 29 70 101 106 95 48 164 105
206 169 21 32 41 70 44 84 4 17 22 33 55 49 89 45 128 116 118 214 -7 64 -41
113 -103 150 -53 31 -154 28 -203 -7 -82 -59 -119 -158 -86 -232 l18 -39 -29
-46 c-37 -61 -73 -86 -120 -88 l-38 -1 -17 60 c-24 82 -23 134 1 170 15 23 20
47 20 101 0 66 -3 75 -34 116 -19 25 -50 53 -69 62 -43 20 -149 21 -192 2z
m162 -92 c48 -31 55 -119 14 -175 -26 -36 -26 -74 0 -180 23 -94 37 -121 75
-146 31 -20 104 -19 151 3 44 22 116 101 148 164 l26 52 -20 48 c-17 39 -19
54 -10 77 20 54 48 73 104 73 62 0 91 -19 104 -66 18 -66 -24 -138 -86 -147
-31 -4 -31 -5 -88 -114 l-50 -97 -85 -47 c-154 -85 -210 -148 -210 -237 0 -48
4 -58 34 -88 50 -50 92 -46 241 21 17 7 70 29 118 49 93 37 192 104 202 137 4
11 4 32 0 48 -17 77 59 145 137 122 50 -15 66 -33 73 -84 13 -88 -49 -159
-125 -142 -25 6 -39 -3 -119 -75 -66 -59 -91 -88 -91 -105 0 -33 34 -55 75
-48 21 3 41 -1 59 -12 86 -57 57 -176 -44 -179 -35 -1 -47 4 -71 32 -18 19
-29 44 -29 61 0 80 -136 108 -264 55 -68 -29 -141 -92 -162 -141 -33 -77 -10
-140 75 -208 34 -26 51 -47 51 -62 0 -31 -43 -61 -98 -68 -26 -4 -82 -14 -126
-22 -93 -18 -184 -9 -368 38 -64 16 -88 62 -50 94 175 146 209 213 161 312
-37 76 -102 117 -333 209 -53 21 -61 22 -87 9 -37 -20 -99 -19 -127 1 -30 21
-53 78 -46 114 9 45 58 85 103 85 52 0 88 -27 102 -76 13 -42 36 -63 85 -79
16 -4 73 -24 128 -44 120 -44 148 -45 209 -7 70 45 106 129 87 201 -13 48 -73
103 -150 137 -30 13 -82 37 -116 54 -57 28 -62 29 -90 14 -37 -19 -57 -19 -95
1 -38 19 -63 75 -54 121 12 66 108 102 166 62 14 -10 31 -37 39 -61 19 -62 31
-72 135 -117 101 -45 122 -48 164 -26 45 23 64 76 58 158 -4 69 -5 70 -56 116
-61 54 -71 89 -43 141 35 65 109 84 169 44z"/></g></svg>