<svg xmlns="http://www.w3.org/2000/svg" fill="currentColor" aria-label="An endpaper" viewBox="-0.0 -25.0 232.0 232.0"><g transform="translate(0.000000,182.000000) scale(0.100000,-0.100000)"><path d="M515 1620 c-201 -61 -274 -127 -314 -287 -20 -76 -21 -109 -21 -512
0 -376 2 -436 16 -473 22 -56 59 -95 113 -119 56 -25 237 -27 338 -3 48 11
105 15 198 12 119 -3 134 -5 182 -30 46 -25 64 -28 141 -28 78 0 98 4 155 30
59 27 77 30 164 30 54 0 139 -7 188 -16 167 -30 356 -3 412 59 56 61 55 55 50
506 -7 561 -23 663 -120 746 -44 38 -94 64 -171 89 -38 12 -92 16 -235 16
-206 0 -260 -10 -386 -70 -65 -31 -67 -31 -93 -14 -103 69 -173 84 -381 83
-140 0 -188 -4 -236 -19z m343 -75 c93 -15 197 -55 239 -91 l22 -19 3 -497 c3
-475 2 -496 -15 -486 -62 33 -234 68 -337 68 -73 0 -257 -23 -310 -39 -62 -19
-128 -14 -154 12 -23 23 -23 24 -25 344 -3 488 17 566 166 645 57 30 109 46
208 63 96 17 98 17 203 0z m862 1 c143 -24 227 -73 269 -156 32 -63 56 -361
56 -690 0 -172 -5 -193 -45 -210 -33 -14 -47 -12 -245 20 -187 31 -360 14
-497 -49 l-43 -19 -8 491 c-4 271 -5 497 -3 502 7 19 131 74 211 94 143 35
181 37 305 17z m-765 -1133 c33 -9 90 -31 127 -50 37 -18 77 -33 89 -33 11 0
51 15 88 34 122 63 159 71 331 71 116 -1 173 -5 228 -19 49 -12 96 -17 147
-14 41 2 75 0 75 -4 0 -4 -10 -18 -22 -31 -53 -57 -158 -70 -338 -42 -195 30
-333 17 -447 -43 -57 -29 -43 -31 -173 24 -57 24 -81 28 -195 32 -95 3 -154 0
-220 -13 -49 -9 -129 -17 -176 -17 -95 -1 -145 18 -166 64 l-10 23 101 1 c56
0 119 6 141 14 92 31 307 32 420 3z M597 1296 c-80 -36 -126 -126 -107 -212 6
-27 23 -64 37 -82 25 -33 25 -33 5 -55 -32 -36 -42 -63 -42 -115 0 -61 25 -97
80 -113 79 -24 144 10 138 72 -4 42 -30 50 -64 18 -20 -19 -27 -21 -49 -11
-33 15 -33 55 0 87 19 20 34 25 73 25 120 0 223 -94 241 -219 6 -43 8 -46 38
-49 40 -4 46 13 34 90 -13 74 -40 125 -94 176 -50 45 -98 69 -169 82 -94 18
-148 68 -148 136 0 66 68 116 121 89 45 -24 34 -59 -21 -67 -14 -2 -26 -11
-28 -21 -6 -30 17 -47 63 -47 33 0 48 6 70 27 24 25 27 33 23 80 -5 63 -30 95
-87 112 -47 14 -78 13 -114 -3z M1612 1290 c-104 -47 -87 -210 22 -210 57 0
78 58 26 70 -37 9 -41 56 -6 70 80 30 145 -82 90 -157 -24 -34 -98 -72 -139
-73 -43 0 -144 -52 -182 -91 -54 -58 -78 -116 -78 -189 l0 -65 30 0 c27 0 30
4 36 40 17 94 56 151 132 195 60 34 132 40 172 14 32 -21 35 -78 6 -94 -26
-13 -27 -13 -50 11 -11 12 -28 19 -43 17 -18 -2 -24 -10 -26 -39 -4 -45 22
-70 81 -76 82 -10 147 47 147 125 0 30 -32 106 -49 116 -6 4 3 24 24 52 33 43
35 50 35 125 0 76 -1 80 -35 117 -32 37 -87 62 -131 62 -11 0 -38 -9 -62 -20z"/></g></svg>