<svg xmlns="http://www.w3.org/2000/svg" fill="currentColor" aria-label="A chubby suitcase" viewBox="-18.0 -0.0 172.0 172.0"><g transform="translate(0.000000,172.000000) scale(0.100000,-0.100000)"><path d="M468 1566 c-32 -14 -60 -48 -82 -99 -12 -29 -14 -57 -9 -116 6 -77 5
-79 -18 -85 -118 -32 -146 -48 -177 -104 -37 -67 -44 -140 -40 -447 3 -264 5
-293 22 -325 12 -21 19 -50 17 -73 -4 -53 15 -102 50 -132 49 -41 147 -35 202
13 15 14 46 16 195 14 171 -3 178 -4 197 -26 31 -36 58 -46 127 -46 76 0 118
22 138 71 7 19 34 57 60 84 67 73 73 113 68 505 -3 308 -4 316 -26 355 -31 54
-62 75 -141 95 l-66 16 -5 106 c-5 91 -9 111 -30 142 -40 58 -75 66 -278 65
-113 0 -187 -5 -204 -13z m373 -72 c43 -22 59 -63 62 -157 l2 -82 -30 0 -30 0
-5 83 c-7 116 -15 122 -165 122 -148 0 -158 -7 -163 -113 -4 -66 -7 -76 -25
-81 -32 -8 -37 1 -37 70 0 110 35 159 124 175 61 11 235 0 267 -17z m-76 -148
c11 -54 4 -71 -28 -70 -15 0 -54 1 -87 2 l-60 2 0 50 0 50 85 0 84 0 6 -34z
m85 -166 c19 -7 47 -24 63 -38 50 -47 57 -98 57 -393 0 -147 -4 -279 -9 -292
-6 -16 -21 -28 -38 -31 -52 -12 -92 -44 -116 -93 l-22 -48 -75 -3 c-41 -2
-112 2 -158 8 -79 10 -85 13 -125 54 -35 36 -52 45 -103 55 -34 6 -69 20 -78
30 -30 33 -39 125 -32 361 6 252 12 294 47 334 32 37 53 47 124 63 77 16 414
11 465 -7z m227 -27 c35 -23 50 -55 62 -130 14 -92 14 -428 0 -529 -9 -67 -31
-134 -43 -134 -2 0 -19 14 -37 31 l-34 32 3 281 c3 293 -3 366 -37 436 l-20
42 42 -7 c23 -4 51 -14 64 -22z m-75 -820 c28 -25 24 -77 -8 -102 -15 -12 -34
-21 -44 -21 -31 0 -70 39 -70 70 0 55 81 91 122 53z m-639 -31 c9 -8 17 -21
17 -28 0 -14 -38 -44 -56 -44 -22 0 -64 49 -64 75 0 26 1 27 43 20 23 -4 50
-14 60 -23z M320 1083 c0 -13 9 -23 23 -27 12 -3 127 -9 254 -13 l233 -6 0 26
c0 27 -1 27 -67 27 -38 0 -152 3 -255 7 -185 6 -188 6 -188 -14z M300 878 c0
-24 4 -25 68 -32 37 -3 156 -9 265 -13 l197 -6 0 25 0 25 -137 7 c-76 3 -195
9 -265 13 l-128 6 0 -25z M302 659 c4 -33 50 -40 313 -42 216 -2 220 -2 223
19 3 20 -2 21 -185 28 -103 3 -226 9 -271 13 l-84 6 4 -24z"/></g></svg>