<svg xmlns="http://www.w3.org/2000/svg" fill="currentColor" aria-label="A chubby person sledging" viewBox="-0.0 -9.0 224.0 224.0"><g transform="translate(0.000000,206.000000) scale(0.100000,-0.100000)"><path d="M930 1881 c-83 -18 -187 -103 -230 -185 -34 -69 -54 -170 -44 -229
l9 -52 -67 -63 c-126 -119 -198 -282 -198 -452 l0 -60 -33 0 c-18 0 -58 -12
-88 -27 -147 -75 -117 -253 49 -288 34 -7 39 -19 20 -60 -10 -22 -17 -25 -64
-25 -47 0 -55 -3 -83 -35 -33 -38 -40 -80 -21 -129 26 -70 115 -83 640 -97
496 -13 789 -6 900 20 157 38 259 111 315 226 28 56 30 68 30 175 0 101 -3
119 -22 150 -29 47 -55 61 -122 67 -99 9 -157 -31 -168 -117 -5 -32 -1 -48 21
-80 30 -45 27 -57 -21 -101 -35 -34 -78 -55 -126 -64 -36 -7 -37 -6 -37 21 0
16 -4 36 -10 44 -6 10 2 23 32 49 98 84 91 228 -14 282 l-41 21 5 62 c6 69 -7
114 -45 155 -24 26 -112 71 -139 71 -9 0 -27 20 -41 44 -24 42 -24 44 -6 67
10 13 28 53 40 88 18 54 21 80 17 170 -4 93 -8 114 -36 172 -36 74 -77 116
-155 156 -43 21 -68 27 -142 29 -49 2 -106 -1 -125 -5z m193 -102 c31 -12 70
-34 89 -50 l33 -28 -47 -1 c-60 0 -150 -33 -192 -71 -18 -15 -47 -57 -64 -92
-27 -54 -32 -76 -32 -136 0 -82 -4 -84 -71 -42 -87 55 -108 163 -53 275 32 67
77 110 148 142 64 29 119 30 189 3z m139 -199 c15 -11 28 -34 31 -53 7 -46
-15 -147 -43 -192 -24 -40 -85 -74 -131 -75 -121 -1 -155 111 -76 257 38 72
163 108 219 63z m-422 -337 c57 -24 204 -70 246 -77 23 -4 61 -1 91 7 59 16
63 14 88 -46 32 -76 11 -153 -51 -182 -38 -18 -39 -18 -118 8 -45 14 -110 34
-146 44 -69 18 -123 47 -154 82 -39 43 -108 14 -91 -39 17 -54 150 -127 271
-149 81 -16 99 -26 118 -71 16 -40 5 -93 -27 -127 -27 -30 -100 -30 -252 -3
-164 29 -186 35 -231 58 -48 24 -69 53 -86 116 -10 38 -9 56 10 130 33 131 93
234 170 293 l43 32 42 -30 c23 -17 58 -37 77 -46z m595 -217 c36 -36 46 -86
29 -148 -7 -29 -22 -64 -32 -78 -31 -41 -109 -78 -177 -82 l-60 -3 0 65 0 65
35 5 c19 4 45 12 57 18 35 19 71 73 78 117 4 22 8 46 10 53 7 19 34 14 60 -12z
m148 -321 c0 -79 -158 -145 -398 -165 -198 -16 -629 20 -795 67 -73 20 -100
38 -100 67 0 31 28 54 86 72 l48 14 29 -35 c60 -74 130 -96 463 -146 90 -13
183 -2 214 26 11 10 38 15 80 15 135 0 266 54 304 125 l20 36 24 -25 c14 -13
25 -36 25 -51z m374 -14 c30 -44 30 -111 2 -187 -44 -116 -143 -188 -305 -221
-79 -16 -141 -18 -549 -17 -592 2 -845 22 -845 67 0 13 49 27 95 27 35 0 48 5
64 26 12 15 21 35 21 45 0 10 5 29 11 42 8 19 16 22 41 19 25 -4 29 -8 24 -26
-16 -59 -17 -92 -3 -104 19 -16 262 -32 503 -32 219 0 221 1 211 74 -6 44 -6
44 27 48 32 4 34 2 46 -45 17 -68 40 -80 137 -74 286 18 438 97 450 234 5 47
-4 79 -29 116 -11 15 -10 21 7 33 31 23 66 13 92 -25z m-466 -218 c13 -34 2
-44 -56 -51 -46 -5 -47 -4 -43 23 2 21 11 30 38 40 50 18 49 18 61 -12z m-716
-18 c66 -8 173 -15 238 -15 81 0 117 -4 117 -11 0 -9 -67 -10 -257 -5 -142 4
-260 9 -262 11 -2 2 -1 11 2 20 8 18 11 18 162 0z"/></g></svg>