<svg xmlns="http://www.w3.org/2000/svg" fill="currentColor" aria-label="A chubby mosquito" viewBox="-0.0 -14.0 216.0 216.0"><g transform="translate(0.000000,188.000000) scale(0.100000,-0.100000)"><path d="M360 1691 c-71 -23 -123 -67 -156 -131 -22 -45 -30 -174 -15 -237 34
-133 142 -277 265 -350 33 -20 63 -38 65 -39 1 -2 -2 -33 -9 -71 -11 -58 -10
-78 4 -132 l16 -63 -34 -57 c-73 -120 -156 -303 -156 -343 0 -59 37 -92 96
-85 54 6 108 45 263 193 109 104 109 104 160 104 70 0 147 31 208 85 28 25 54
45 58 45 4 0 21 -12 38 -26 65 -54 208 -112 332 -134 80 -14 249 -9 307 9 57
18 119 71 147 126 21 40 26 63 25 120 -1 121 -61 215 -184 290 -66 40 -224 85
-297 85 -29 0 -53 3 -53 6 0 3 15 38 34 78 103 215 116 291 66 374 -34 55 -72
71 -165 69 -73 -2 -87 -5 -131 -34 -27 -17 -84 -53 -128 -80 -43 -26 -110 -77
-148 -112 -38 -35 -70 -62 -73 -60 -2 2 -13 28 -24 57 -49 123 -145 233 -250
285 -54 26 -76 31 -150 34 -47 1 -97 -1 -111 -6z m228 -107 c69 -40 143 -121
184 -200 42 -82 66 -187 52 -235 -8 -29 -16 -35 -64 -49 -66 -20 -93 -34 -141
-71 l-37 -29 -48 26 c-70 37 -127 86 -179 154 -58 76 -84 133 -91 207 -11 101
21 173 94 213 54 30 165 22 230 -16z m829 -54 c8 0 28 -13 44 -29 33 -33 38
-83 15 -136 l-13 -30 -20 40 c-27 51 -57 79 -113 104 l-45 20 45 20 c25 11 51
18 58 16 8 -3 20 -5 29 -5z m-125 -97 c24 -9 52 -23 62 -32 23 -20 66 -108 66
-137 0 -24 -54 -130 -80 -158 -17 -18 -18 -16 -35 33 -11 33 -32 66 -63 97
-54 53 -80 68 -145 85 -26 6 -47 15 -47 19 0 12 79 70 123 90 52 24 65 24 119
3z m-161 -189 c51 -25 95 -71 116 -121 25 -61 19 -74 -59 -126 -68 -45 -74
-47 -85 -30 -45 63 -108 107 -195 136 -14 5 -18 17 -18 50 0 36 6 49 34 76 56
54 119 59 207 15z m-173 -237 c52 -34 96 -93 117 -156 24 -75 -1 -166 -62
-222 -40 -38 -89 -60 -136 -62 -41 -2 -41 -2 -49 42 -10 59 -30 87 -80 112
-33 17 -53 20 -94 16 -59 -6 -64 -1 -64 65 0 61 19 114 59 159 50 59 96 77
191 75 66 -1 83 -5 118 -29z m597 -12 c117 -25 196 -66 272 -144 50 -52 65
-86 65 -153 0 -48 -5 -65 -27 -93 -96 -126 -357 -120 -595 15 -119 67 -118 65
-116 177 1 90 2 96 30 123 77 78 218 106 371 75z m-839 -321 c39 -18 68 -65
59 -93 -13 -42 -316 -321 -347 -321 -23 0 15 89 101 240 89 155 110 182 149
189 2 1 19 -6 38 -15z"/></g></svg>