<svg xmlns="http://www.w3.org/2000/svg" fill="currentColor" aria-label="A chubby oystercatcher" viewBox="-0.0 -28.5 218.0 218.0"><g transform="translate(0.000000,161.000000) scale(0.100000,-0.100000)"><path d="M920 1420 c-61 -11 -99 -27 -137 -56 -41 -31 -88 -100 -97 -141 -7
-29 -26 -45 -139 -120 -185 -122 -300 -207 -336 -248 -51 -58 -36 -122 33
-145 47 -15 122 11 303 106 79 41 145 74 148 74 3 0 2 -8 -3 -17 -28 -55 -38
-207 -18 -288 31 -130 130 -252 262 -322 149 -79 404 -107 572 -63 198 53 382
188 424 311 6 19 24 49 40 67 20 23 28 43 28 70 0 47 -41 89 -146 150 -38 22
-95 59 -125 81 -29 22 -72 53 -94 69 -98 73 -248 132 -332 132 l-33 0 0 73 c0
119 -51 202 -150 246 -54 23 -139 32 -200 21z m160 -93 c90 -36 129 -122 108
-239 -7 -42 -7 -62 1 -72 7 -8 43 -15 93 -19 140 -10 218 -45 390 -173 53 -39
117 -82 142 -95 25 -12 60 -34 77 -49 44 -36 34 -62 -38 -96 -132 -62 -166
-69 -338 -69 l-160 0 -73 34 c-91 43 -136 92 -159 174 -17 63 -38 81 -59 52
-21 -29 -17 -66 17 -133 99 -200 395 -268 702 -163 52 18 56 18 48 3 -39 -72
-226 -179 -360 -207 -261 -55 -562 37 -665 204 -67 108 -79 256 -32 390 31 90
32 103 6 126 -20 18 -25 16 -238 -93 -210 -107 -270 -130 -279 -105 -2 6 20
29 49 51 54 40 379 258 414 278 10 6 24 31 31 55 15 58 51 110 88 129 88 44
156 49 235 17z"/></g></svg>